<svg width="24" height="22" viewBox="0 0 24 22" fill="none" xmlns="http://www.w3.org/2000/svg">
<path d="M11.625 0C7.69629 0 4.5 3.19629 4.5 7.125C4.5 8.98975 5.54297 10.3828 6.55225 11.7305C7.35791 12.8071 8.1167 13.8325 8.25 15V17.625C8.25 18.9448 9.22998 20.0376 10.5 20.2207V20.625C10.5 21.0381 10.8369 21.375 11.25 21.375H12C12.4131 21.375 12.75 21.0381 12.75 20.625V20.2207C14.02 20.0376 15 18.9448 15 17.625V15.3369C15.0059 14.0259 15.8335 12.9111 16.7109 11.7305C17.7144 10.3828 18.75 8.98975 18.75 7.125C18.75 3.19629 15.5537 0 11.625 0ZM11.625 0.75C15.1406 0.75 18 3.60938 18 7.125C18 8.74219 17.0391 10.0342 16.1104 11.2837C15.2695 12.4146 14.4023 13.5791 14.2676 14.9766H12V13.875C12 13.6685 11.8315 13.5 11.625 13.5C11.4185 13.5 11.25 13.6685 11.25 13.875V14.978H9.01025C8.87402 13.5806 7.99951 12.4131 7.15283 11.2808C6.2168 10.0313 5.25 8.74072 5.25 7.125C5.25 3.60938 8.10938 0.75 11.625 0.75ZM11.5737 1.87354C10.5718 1.88232 9.59326 2.17676 8.74219 2.73633C8.56934 2.84912 8.52246 3.08203 8.63672 3.25488C8.7085 3.36475 8.82715 3.42334 8.94873 3.42334C9.02051 3.42334 9.09082 3.4043 9.15527 3.36182C10.1265 2.72314 11.2939 2.48877 12.4438 2.69971C12.6489 2.73633 12.8438 2.60156 12.8804 2.39795C12.9185 2.19434 12.7837 1.99951 12.5801 1.96289C12.2446 1.8999 11.9092 1.87061 11.5737 1.87354ZM14.1973 2.57812C14.0537 2.55762 13.9028 2.62354 13.8223 2.75537C13.7153 2.93408 13.7725 3.16406 13.9512 3.271C14.2603 3.4585 14.5488 3.68408 14.8066 3.94336C14.8799 4.0166 14.9766 4.05322 15.0718 4.05322C15.1685 4.05322 15.2651 4.0166 15.3384 3.94336C15.4849 3.79688 15.4849 3.55957 15.3384 3.41309C15.0352 3.11133 14.6997 2.84766 14.3379 2.62939C14.2939 2.60303 14.2456 2.58545 14.1973 2.57812ZM1.88379 2.81689C1.7373 2.81982 1.59961 2.90771 1.54102 3.05127C1.46484 3.24316 1.55713 3.46289 1.74902 3.53906L3.14062 4.10156C3.18604 4.12061 3.23291 4.12939 3.27979 4.12939C3.42773 4.12939 3.56982 4.04004 3.62842 3.89502C3.70605 3.70166 3.6123 3.4834 3.42041 3.40576L2.03027 2.84326C1.98193 2.82422 1.93213 2.81543 1.88379 2.81689ZM21.3662 2.81689C21.3179 2.81543 21.2681 2.82422 21.2197 2.84326L19.8296 3.40576C19.6377 3.4834 19.5439 3.70166 19.6216 3.89502C19.6802 4.04004 19.8223 4.12939 19.9702 4.12939C20.0171 4.12939 20.064 4.12061 20.1094 4.10156L21.501 3.53906C21.6929 3.46289 21.7852 3.24316 21.709 3.05127C21.6504 2.90771 21.5127 2.81982 21.3662 2.81689ZM0.375 6.75C0.168457 6.75 0 6.91846 0 7.125C0 7.33154 0.168457 7.5 0.375 7.5H2.625C2.83154 7.5 3 7.33154 3 7.125C3 6.91846 2.83154 6.75 2.625 6.75H0.375ZM20.625 6.75C20.4185 6.75 20.25 6.91846 20.25 7.125C20.25 7.33154 20.4185 7.5 20.625 7.5H22.875C23.0815 7.5 23.25 7.33154 23.25 7.125C23.25 6.91846 23.0815 6.75 22.875 6.75H20.625ZM10.125 8.25C10.0298 8.25 9.93311 8.28662 9.85986 8.35986C9.71338 8.50635 9.71338 8.74365 9.85986 8.89014L10.6099 9.64014C10.6831 9.71338 10.7783 9.75 10.875 9.75C10.9717 9.75 11.0669 9.71338 11.1401 9.64014C11.2866 9.49365 11.2866 9.25635 11.1401 9.10986L10.3901 8.35986C10.3169 8.28662 10.2202 8.25 10.125 8.25ZM13.125 8.25C13.0298 8.25 12.9331 8.28662 12.8599 8.35986L11.3599 9.85986C11.2896 9.93018 11.25 10.0254 11.25 10.125V12.375C11.25 12.5815 11.4185 12.75 11.625 12.75C11.8315 12.75 12 12.5815 12 12.375V10.2803L13.3901 8.89014C13.5366 8.74365 13.5366 8.50635 13.3901 8.35986C13.3169 8.28662 13.2202 8.25 13.125 8.25ZM3.28711 10.1206C3.2373 10.1206 3.1875 10.1294 3.14062 10.1484L1.74902 10.7109C1.55713 10.7871 1.46484 11.0068 1.54102 11.1987C1.60107 11.3452 1.7417 11.4331 1.88965 11.4331C1.93652 11.4331 1.98486 11.4243 2.03027 11.4067L3.42041 10.8442C3.6123 10.7666 3.70605 10.5483 3.62842 10.355C3.56982 10.2114 3.43213 10.1235 3.28711 10.1206ZM19.9629 10.1221C19.8179 10.125 19.6802 10.2129 19.6216 10.3564C19.5439 10.5483 19.6377 10.7681 19.8296 10.8457L21.2197 11.4067C21.2651 11.4258 21.3135 11.4331 21.3604 11.4331C21.5083 11.4331 21.6489 11.3452 21.709 11.1987C21.7852 11.0068 21.6929 10.7886 21.501 10.7109L20.1094 10.1484C20.0625 10.1294 20.0127 10.1206 19.9629 10.1221ZM9 15.75H14.25V16.1689L9 16.8252V15.75ZM14.25 16.9248V17.625C14.25 17.6396 14.2456 17.6543 14.2456 17.6704L10.437 18.1465C10.2319 18.1714 10.0869 18.3589 10.1133 18.564C10.1367 18.7544 10.2979 18.8921 10.4839 18.8921C10.5 18.8921 10.5146 18.8921 10.5308 18.8892L14.0508 18.4497C13.7446 19.0693 13.1118 19.5 12.375 19.5H10.875C9.84082 19.5 9 18.6592 9 17.625V17.5811L14.25 16.9248ZM11.25 20.25H12V20.625H11.25V20.25Z" fill="#F0CD41"/>
</svg>
