<svg width="24" height="24" viewBox="0 0 24 24" fill="none" xmlns="http://www.w3.org/2000/svg">
<path d="M9.375 0C4.20557 0 0 4.20557 0 9.375C0 14.5444 4.20557 18.75 9.375 18.75C11.4434 18.75 13.355 18.0762 14.9062 16.938C14.9062 16.938 15.9478 17.9575 15.9976 17.9751C15.9976 17.9839 15.9961 17.9912 15.9961 18C15.9961 18.501 16.1909 18.9727 16.5454 19.3257L20.4243 23.2046C20.7905 23.5708 21.2695 23.7524 21.75 23.7524C22.2305 23.7524 22.7109 23.5708 23.0757 23.2046L23.2046 23.0742C23.5591 22.7212 23.7539 22.251 23.7539 21.75C23.7539 21.249 23.5591 20.7773 23.2046 20.4243L19.3257 16.5454C18.9536 16.1733 18.4644 15.9932 17.9766 16.0005C17.9575 15.9492 16.938 14.9062 16.938 14.9062C18.0762 13.355 18.75 11.4434 18.75 9.375C18.75 4.20557 14.5444 0 9.375 0ZM9.375 0.75C14.1313 0.75 18 4.61865 18 9.375C18 14.1313 14.1313 18 9.375 18C4.61865 18 0.75 14.1313 0.75 9.375C0.75 4.61865 4.61865 0.75 9.375 0.75ZM9.375 2.25C7.47217 2.25 5.68213 2.99121 4.33594 4.33594C1.55859 7.11475 1.55859 11.6353 4.33594 14.4126C5.68213 15.7588 7.47217 16.5 9.375 16.5C11.2778 16.5 13.0679 15.7588 14.4141 14.4141C17.1914 11.6353 17.1914 7.11475 14.4141 4.33594C13.0679 2.99121 11.2778 2.25 9.375 2.25ZM9.375 3C11.0771 3 12.6782 3.66357 13.8823 4.86768C16.3682 7.35205 16.3682 11.3979 13.8823 13.8823C12.6782 15.0864 11.0771 15.75 9.375 15.75C7.67285 15.75 6.07178 15.0864 4.86768 13.8823C2.38184 11.3979 2.38184 7.35352 4.86768 4.86768C6.07178 3.66357 7.67285 3 9.375 3ZM9.30322 4.125C7.93945 4.14111 6.63867 4.68604 5.66162 5.66162C5.51514 5.80957 5.51514 6.04541 5.66162 6.19336C5.73486 6.26514 5.83154 6.30322 5.92822 6.30322C6.02344 6.30322 6.12012 6.26514 6.19336 6.19336C7.14844 5.23682 8.46826 4.76367 9.81738 4.89697C10.0239 4.91455 10.207 4.7666 10.2275 4.56006C10.248 4.35352 10.0972 4.17041 9.89062 4.1499C9.69434 4.13086 9.49805 4.12207 9.30322 4.125ZM11.9473 4.82812C11.8037 4.80762 11.6528 4.87354 11.5723 5.00684C11.4653 5.18408 11.5225 5.41406 11.7012 5.521C12.0088 5.7085 12.2974 5.93408 12.5566 6.19336C12.6299 6.2666 12.7251 6.30322 12.8218 6.30322C12.9185 6.30322 13.0137 6.2666 13.0884 6.19336C13.2334 6.04688 13.2334 5.80957 13.0884 5.66309C12.7852 5.36133 12.4482 5.09766 12.0879 4.87939C12.0439 4.85303 11.9956 4.83545 11.9473 4.82812ZM4.125 9C3.91846 9 3.75 9.16699 3.75 9.375C3.75 9.58301 3.91846 9.75 4.125 9.75H4.875C5.08154 9.75 5.25 9.58301 5.25 9.375C5.25 9.16699 5.08154 9 4.875 9H4.125ZM13.875 9C13.6685 9 13.5 9.16699 13.5 9.375C13.5 9.58301 13.6685 9.75 13.875 9.75H14.625C14.8315 9.75 15 9.58301 15 9.375C15 9.16699 14.8315 9 14.625 9H13.875ZM5.20898 10.686C5.16064 10.6846 5.10938 10.6934 5.0625 10.7124L4.3667 10.9937C4.1748 11.0713 4.08252 11.2896 4.16016 11.4814C4.21875 11.6279 4.35938 11.7173 4.50732 11.7173C4.5542 11.7173 4.60254 11.7085 4.64795 11.6895L5.34375 11.4082C5.53564 11.3306 5.62793 11.1123 5.55029 10.9204C5.4917 10.7769 5.35547 10.6875 5.20898 10.686ZM13.5176 10.7578C13.3711 10.7578 13.2319 10.8442 13.1719 10.9863C13.0913 11.1782 13.1792 11.3979 13.3711 11.4785L14.061 11.7715C14.1079 11.792 14.1577 11.8008 14.2075 11.8008C14.354 11.8008 14.4917 11.7158 14.5532 11.5723C14.6338 11.3818 14.5444 11.1621 14.354 11.0815L13.6641 10.7886C13.6157 10.7681 13.5659 10.7578 13.5176 10.7578ZM6.19336 12.1816C6.09668 12.1816 6.00146 12.2183 5.92822 12.2915L5.39795 12.8218C5.25146 12.9683 5.25146 13.2056 5.39795 13.3521C5.47119 13.4253 5.56641 13.4619 5.66309 13.4619C5.75977 13.4619 5.85498 13.4253 5.92822 13.3521L6.4585 12.8218C6.60498 12.6753 6.60498 12.438 6.4585 12.2915C6.38525 12.2183 6.28857 12.1816 6.19336 12.1816ZM12.5566 12.1816C12.4614 12.1816 12.3647 12.2183 12.2915 12.2915C12.145 12.438 12.145 12.6753 12.2915 12.8218L12.8218 13.3521C12.895 13.4253 12.9902 13.4619 13.0869 13.4619C13.1836 13.4619 13.2788 13.4253 13.3521 13.3521C13.4985 13.2056 13.4985 12.9683 13.3521 12.8218L12.8218 12.2915C12.7485 12.2183 12.6519 12.1816 12.5566 12.1816ZM7.61719 13.1426C7.4707 13.1426 7.33154 13.2275 7.27148 13.3711L6.97852 14.061C6.89795 14.2515 6.9873 14.4727 7.17773 14.5532C7.22607 14.5737 7.27441 14.5825 7.32422 14.5825C7.46924 14.5825 7.6084 14.4961 7.66992 14.354L7.96289 13.6641C8.04346 13.4736 7.9541 13.2524 7.76367 13.1719C7.71533 13.1514 7.66553 13.1426 7.61719 13.1426ZM11.0669 13.1719C11.0186 13.1719 10.9673 13.1807 10.9204 13.1997C10.7271 13.2773 10.6348 13.4956 10.7124 13.6875L10.9937 14.3833C11.0522 14.5298 11.1929 14.6177 11.3423 14.6177C11.3892 14.6177 11.436 14.6089 11.4829 14.5898C11.6748 14.5122 11.7671 14.2939 11.6895 14.1021L11.4082 13.4062C11.3496 13.2627 11.2134 13.1748 11.0669 13.1719ZM9.375 13.5C9.16846 13.5 9 13.667 9 13.875V14.625C9 14.833 9.16846 15 9.375 15C9.58154 15 9.75 14.833 9.75 14.625V13.875C9.75 13.667 9.58154 13.5 9.375 13.5ZM16.4663 15.4966L17.1694 16.2012C16.9922 16.2891 16.8223 16.3989 16.6743 16.5469L16.5454 16.6743C16.3989 16.8208 16.2891 16.9893 16.1997 17.168L15.4966 16.4663C15.8437 16.1675 16.1675 15.8437 16.4663 15.4966ZM18 16.7461C18.2886 16.7461 18.5771 16.856 18.7969 17.0757L22.6758 20.9546C22.8882 21.167 23.0039 21.4497 23.0039 21.75C23.0039 22.0503 22.8867 22.333 22.6743 22.5454L22.5454 22.6743C22.106 23.1123 21.394 23.1123 20.9546 22.6743L17.0757 18.7954C16.8633 18.583 16.7461 18.3003 16.7461 18C16.7461 17.6997 16.8633 17.417 17.0757 17.2046L17.2046 17.0757C17.4243 16.856 17.7129 16.7461 18 16.7461Z" fill="#384272"/>
</svg>
