<svg width="20" height="20" viewBox="0 0 20 20" fill="none" xmlns="http://www.w3.org/2000/svg">
<path d="M2.625 0C1.17962 0 0 1.17962 0 2.625V16.875C0 18.3204 1.17962 19.5 2.625 19.5H16.875C18.3204 19.5 19.5 18.3204 19.5 16.875V2.625C19.5 1.17962 18.3204 0 16.875 0H2.625ZM2.625 0.75H16.875C17.9151 0.75 18.75 1.58488 18.75 2.625V16.875C18.75 17.9151 17.9151 18.75 16.875 18.75H2.625C1.58488 18.75 0.75 17.9151 0.75 16.875V2.625C0.75 1.58488 1.58488 0.75 2.625 0.75ZM2.24414 1.86987C2.14481 1.87143 2.05016 1.91232 1.98095 1.98359C1.91174 2.05486 1.87364 2.15067 1.875 2.25V3C1.8743 3.04969 1.88348 3.09903 1.90201 3.14514C1.92054 3.19125 1.94805 3.23322 1.98294 3.26861C2.01783 3.304 2.05941 3.3321 2.10526 3.35128C2.1511 3.37046 2.2003 3.38034 2.25 3.38034C2.2997 3.38034 2.3489 3.37046 2.39474 3.35128C2.44059 3.3321 2.48217 3.304 2.51706 3.26861C2.55195 3.23322 2.57946 3.19125 2.59799 3.14514C2.61652 3.09903 2.6257 3.04969 2.625 3V2.25C2.62569 2.19983 2.6163 2.15003 2.59739 2.10355C2.57849 2.05707 2.55045 2.01486 2.51493 1.97942C2.47942 1.94397 2.43716 1.91601 2.39064 1.8972C2.34413 1.87838 2.29431 1.86909 2.24414 1.86987ZM4.11914 1.86987C4.01981 1.87143 3.92516 1.91232 3.85595 1.98359C3.78674 2.05486 3.74864 2.15067 3.75 2.25V3C3.7493 3.04969 3.75848 3.09903 3.77701 3.14514C3.79554 3.19125 3.82305 3.23322 3.85794 3.26861C3.89283 3.304 3.93441 3.3321 3.98026 3.35128C4.0261 3.37046 4.0753 3.38034 4.125 3.38034C4.1747 3.38034 4.2239 3.37046 4.26974 3.35128C4.31559 3.3321 4.35717 3.304 4.39206 3.26861C4.42695 3.23322 4.45446 3.19125 4.47299 3.14514C4.49152 3.09903 4.5007 3.04969 4.5 3V2.25C4.50069 2.19983 4.4913 2.15003 4.47239 2.10355C4.45349 2.05707 4.42545 2.01486 4.38993 1.97942C4.35442 1.94397 4.31215 1.91601 4.26564 1.8972C4.21913 1.87838 4.16931 1.86909 4.11914 1.86987ZM5.99414 1.86987C5.89481 1.87143 5.80016 1.91232 5.73095 1.98359C5.66174 2.05486 5.62364 2.15067 5.625 2.25V3C5.6243 3.04969 5.63348 3.09903 5.65201 3.14514C5.67054 3.19125 5.69805 3.23322 5.73294 3.26861C5.76783 3.304 5.80941 3.3321 5.85526 3.35128C5.9011 3.37046 5.9503 3.38034 6 3.38034C6.0497 3.38034 6.0989 3.37046 6.14474 3.35128C6.19059 3.3321 6.23217 3.304 6.26706 3.26861C6.30195 3.23322 6.32946 3.19125 6.34799 3.14514C6.36652 3.09903 6.3757 3.04969 6.375 3V2.25C6.37569 2.19983 6.3663 2.15003 6.34739 2.10355C6.32849 2.05707 6.30045 2.01486 6.26493 1.97942C6.22942 1.94397 6.18715 1.91601 6.14064 1.8972C6.09413 1.87838 6.04431 1.86909 5.99414 1.86987ZM7.86914 1.86987C7.76981 1.87143 7.67516 1.91232 7.60595 1.98359C7.53674 2.05486 7.49864 2.15067 7.5 2.25V3C7.4993 3.04969 7.50848 3.09903 7.52701 3.14514C7.54554 3.19125 7.57305 3.23322 7.60794 3.26861C7.64283 3.304 7.68441 3.3321 7.73026 3.35128C7.7761 3.37046 7.8253 3.38034 7.875 3.38034C7.9247 3.38034 7.9739 3.37046 8.01974 3.35128C8.06559 3.3321 8.10717 3.304 8.14206 3.26861C8.17695 3.23322 8.20446 3.19125 8.22299 3.14514C8.24152 3.09903 8.2507 3.04969 8.25 3V2.25C8.25069 2.19983 8.2413 2.15003 8.22239 2.10355C8.20349 2.05707 8.17545 2.01486 8.13993 1.97942C8.10442 1.94397 8.06215 1.91601 8.01564 1.8972C7.96913 1.87838 7.91931 1.86909 7.86914 1.86987ZM9.74414 1.86987C9.64481 1.87143 9.55016 1.91232 9.48095 1.98359C9.41174 2.05486 9.37364 2.15067 9.375 2.25V3C9.3743 3.04969 9.38348 3.09903 9.40201 3.14514C9.42054 3.19125 9.44805 3.23322 9.48294 3.26861C9.51783 3.304 9.55941 3.3321 9.60526 3.35128C9.6511 3.37046 9.7003 3.38034 9.75 3.38034C9.7997 3.38034 9.8489 3.37046 9.89474 3.35128C9.94059 3.3321 9.98217 3.304 10.0171 3.26861C10.052 3.23322 10.0795 3.19125 10.098 3.14514C10.1165 3.09903 10.1257 3.04969 10.125 3V2.25C10.1257 2.19983 10.1163 2.15003 10.0974 2.10355C10.0785 2.05707 10.0504 2.01486 10.0149 1.97942C9.97942 1.94397 9.93715 1.91601 9.89064 1.8972C9.84413 1.87838 9.79431 1.86909 9.74414 1.86987ZM11.6191 1.86987C11.5198 1.87143 11.4252 1.91232 11.356 1.98359C11.2867 2.05486 11.2486 2.15067 11.25 2.25V3C11.2493 3.04969 11.2585 3.09903 11.277 3.14514C11.2955 3.19125 11.323 3.23322 11.3579 3.26861C11.3928 3.304 11.4344 3.3321 11.4803 3.35128C11.5261 3.37046 11.5753 3.38034 11.625 3.38034C11.6747 3.38034 11.7239 3.37046 11.7697 3.35128C11.8156 3.3321 11.8572 3.304 11.8921 3.26861C11.927 3.23322 11.9545 3.19125 11.973 3.14514C11.9915 3.09903 12.0007 3.04969 12 3V2.25C12.0007 2.19983 11.9913 2.15003 11.9724 2.10355C11.9535 2.05707 11.9254 2.01486 11.8899 1.97942C11.8544 1.94397 11.8122 1.91601 11.7656 1.8972C11.7191 1.87838 11.6693 1.86909 11.6191 1.86987ZM13.4941 1.86987C13.3948 1.87143 13.3002 1.91232 13.231 1.98359C13.1617 2.05486 13.1236 2.15067 13.125 2.25V3C13.1243 3.04969 13.1335 3.09903 13.152 3.14514C13.1705 3.19125 13.198 3.23322 13.2329 3.26861C13.2678 3.304 13.3094 3.3321 13.3553 3.35128C13.4011 3.37046 13.4503 3.38034 13.5 3.38034C13.5497 3.38034 13.5989 3.37046 13.6447 3.35128C13.6906 3.3321 13.7322 3.304 13.7671 3.26861C13.802 3.23322 13.8295 3.19125 13.848 3.14514C13.8665 3.09903 13.8757 3.04969 13.875 3V2.25C13.8757 2.19983 13.8663 2.15003 13.8474 2.10355C13.8285 2.05707 13.8004 2.01486 13.7649 1.97942C13.7294 1.94397 13.6872 1.91601 13.6406 1.8972C13.5941 1.87838 13.5443 1.86909 13.4941 1.86987ZM15.3691 1.86987C15.2698 1.87143 15.1752 1.91232 15.106 1.98359C15.0367 2.05486 14.9986 2.15067 15 2.25V3C14.9993 3.04969 15.0085 3.09903 15.027 3.14514C15.0455 3.19125 15.073 3.23322 15.1079 3.26861C15.1428 3.304 15.1844 3.3321 15.2303 3.35128C15.2761 3.37046 15.3253 3.38034 15.375 3.38034C15.4247 3.38034 15.4739 3.37046 15.5197 3.35128C15.5656 3.3321 15.6072 3.304 15.6421 3.26861C15.677 3.23322 15.7045 3.19125 15.723 3.14514C15.7415 3.09903 15.7507 3.04969 15.75 3V2.25C15.7507 2.19983 15.7413 2.15003 15.7224 2.10355C15.7035 2.05707 15.6754 2.01486 15.6399 1.97942C15.6044 1.94397 15.5622 1.91601 15.5156 1.8972C15.4691 1.87838 15.4193 1.86909 15.3691 1.86987ZM17.2441 1.86987C17.1448 1.87143 17.0502 1.91232 16.981 1.98359C16.9117 2.05486 16.8736 2.15067 16.875 2.25V3C16.8743 3.04969 16.8835 3.09903 16.902 3.14514C16.9205 3.19125 16.948 3.23322 16.9829 3.26861C17.0178 3.304 17.0594 3.3321 17.1053 3.35128C17.1511 3.37046 17.2003 3.38034 17.25 3.38034C17.2997 3.38034 17.3489 3.37046 17.3947 3.35128C17.4406 3.3321 17.4822 3.304 17.5171 3.26861C17.552 3.23322 17.5795 3.19125 17.598 3.14514C17.6165 3.09903 17.6257 3.04969 17.625 3V2.25C17.6257 2.19983 17.6163 2.15003 17.5974 2.10355C17.5785 2.05707 17.5504 2.01486 17.5149 1.97942C17.4794 1.94397 17.4372 1.91601 17.3906 1.8972C17.3441 1.87838 17.2943 1.86909 17.2441 1.86987ZM9.75 4.875C9.65055 4.87501 9.55517 4.91452 9.48485 4.98485C9.41452 5.05517 9.37501 5.15055 9.375 5.25V10.125H6.375C6.27555 10.125 6.18017 10.1645 6.10985 10.2348C6.03952 10.3052 6.00001 10.4005 6 10.5V12.75H3C2.90055 12.75 2.80517 12.7895 2.73485 12.8598C2.66452 12.9302 2.62501 13.0255 2.625 13.125V15.375C2.62501 15.4745 2.66452 15.5698 2.73485 15.6402C2.80517 15.7105 2.90055 15.75 3 15.75H6.375H9.75H13.125H16.5C16.5995 15.75 16.6948 15.7105 16.7652 15.6402C16.8355 15.5698 16.875 15.4745 16.875 15.375V8.25C16.875 8.15055 16.8355 8.05517 16.7652 7.98485C16.6948 7.91452 16.5995 7.87501 16.5 7.875H13.5V5.25C13.5 5.15055 13.4605 5.05517 13.3902 4.98485C13.3198 4.91452 13.2245 4.87501 13.125 4.875H9.75ZM10.125 5.625H12.75V8.25V15H10.125V10.5V5.625ZM13.5 8.625H16.125V15H13.5V8.625ZM6.75 10.875H9.375V15H6.75V13.125V10.875ZM3.375 13.5H6V15H3.375V13.5ZM3 16.5C2.95031 16.4993 2.90097 16.5085 2.85486 16.527C2.80875 16.5455 2.76678 16.573 2.73139 16.6079C2.696 16.6428 2.6679 16.6844 2.64872 16.7303C2.62954 16.7761 2.61966 16.8253 2.61966 16.875C2.61966 16.9247 2.62954 16.9739 2.64872 17.0197C2.6679 17.0656 2.696 17.1072 2.73139 17.1421C2.76678 17.177 2.80875 17.2045 2.85486 17.223C2.90097 17.2415 2.95031 17.2507 3 17.25H16.5C16.5497 17.2507 16.599 17.2415 16.6451 17.223C16.6913 17.2045 16.7332 17.177 16.7686 17.1421C16.804 17.1072 16.8321 17.0656 16.8513 17.0197C16.8705 16.9739 16.8803 16.9247 16.8803 16.875C16.8803 16.8253 16.8705 16.7761 16.8513 16.7303C16.8321 16.6844 16.804 16.6428 16.7686 16.6079C16.7332 16.573 16.6913 16.5455 16.6451 16.527C16.599 16.5085 16.5497 16.4993 16.5 16.5H3Z" fill="#F0CD41"/>
</svg>
