<svg width="23" height="24" viewBox="0 0 23 24" fill="none" xmlns="http://www.w3.org/2000/svg">
<path d="M10.8091 0C7.80029 0 5.24121 2.05078 4.58643 4.98633L3.66797 9.10107C3.47754 9.94922 3.14063 10.7461 2.66309 11.4712L2.03906 12.416C1.85449 12.6973 1.80469 13.043 1.90283 13.3638C2.00244 13.686 2.23828 13.9468 2.55176 14.0757C3.03662 14.2778 3.58447 14.4639 4.18066 14.6382L2.34668 15.5171C0.921387 16.1982 0 17.6587 0 19.2378V22.125C0 22.7446 0.505371 23.25 1.125 23.25H21.375C21.9946 23.25 22.5 22.7446 22.5 22.125V19.2378C22.5 17.6587 21.5801 16.1982 20.1548 15.5171L18.3032 14.6309C18.9097 14.4565 19.4648 14.272 19.9497 14.0742C20.2603 13.9453 20.4961 13.689 20.5972 13.3667C20.6968 13.0444 20.6484 12.6973 20.4639 12.416L19.7666 11.3481C19.3037 10.6406 18.9741 9.86426 18.7852 9.04102L17.9341 5.32617C17.3013 2.56787 14.9062 0.552246 12.0864 0.391113C11.7026 0.134766 11.2632 0 10.8091 0ZM10.8091 0.75C11.1401 0.75 11.4609 0.856934 11.7363 1.06055C11.7964 1.10596 11.8696 1.13232 11.9443 1.13379C14.4741 1.23486 16.6377 3.02783 17.2031 5.49316L18.0542 9.20801C18.2637 10.1191 18.6284 10.9761 19.1382 11.7583L19.8354 12.8247C19.8984 12.9199 19.9146 13.0356 19.8809 13.144C19.8618 13.207 19.8076 13.3213 19.6641 13.3784C18.9946 13.6538 18.1846 13.9058 17.2617 14.1328L15.1816 13.1382C15.5815 12.5171 15.9067 11.8359 16.1309 11.1504C16.5908 10.9775 17.0112 10.415 17.2119 9.6665C17.3306 9.22412 17.354 8.77881 17.2793 8.4126C17.1855 7.95557 16.9482 7.65381 16.6113 7.56445C16.5645 7.55127 16.5088 7.54102 16.4458 7.53955C16.4048 7.23926 16.3389 6.94336 16.248 6.65625C16.1836 6.4585 15.9741 6.34863 15.7764 6.41162C15.5786 6.47461 15.4702 6.68555 15.5332 6.8833C15.6504 7.25537 15.7207 7.64355 15.7383 8.0376C15.7456 8.1709 15.8232 8.29248 15.9419 8.354C16.062 8.41406 16.2041 8.4082 16.3169 8.3335C16.3843 8.29102 16.418 8.28955 16.4165 8.28955C16.437 8.29541 16.5044 8.37158 16.5439 8.56201C16.5952 8.81396 16.5747 9.14502 16.4883 9.47314C16.3022 10.1631 15.9478 10.4546 15.8379 10.4546C15.6724 10.4546 15.5259 10.5645 15.479 10.7227C14.8462 12.8481 13.1924 15 11.25 15C9.30762 15 7.65381 12.8481 7.021 10.7227C6.97412 10.5645 6.8291 10.4546 6.66211 10.4546C6.55225 10.4546 6.19775 10.1631 6.01318 9.47314C5.92529 9.14502 5.90479 8.81396 5.95605 8.56201C5.99561 8.37158 6.06445 8.29395 6.08203 8.28955C6.08203 8.28955 6.11426 8.28955 6.18311 8.3335C6.2959 8.40674 6.43799 8.41406 6.55811 8.354C6.67676 8.29248 6.75586 8.17236 6.76172 8.0376C6.7793 7.64648 6.84814 7.25977 6.9668 6.88916C7.02832 6.69141 6.91846 6.479 6.7207 6.41748C6.52441 6.35303 6.31348 6.46436 6.25195 6.66211C6.16113 6.94922 6.09375 7.24219 6.0542 7.53955C5.99121 7.54248 5.93701 7.55127 5.89014 7.56445C5.55176 7.65381 5.31445 7.95557 5.2207 8.4126C5.146 8.77881 5.1709 9.22412 5.28955 9.6665C5.48877 10.415 5.91064 10.9775 6.36914 11.1504C6.59473 11.8359 6.91846 12.5171 7.31982 13.1382L5.21631 14.1445C4.31396 13.9189 3.5127 13.6641 2.83887 13.3828C2.7334 13.3403 2.65283 13.2524 2.61914 13.144C2.6001 13.0811 2.58105 12.9565 2.66602 12.8276L3.28857 11.8828C3.81592 11.0801 4.19092 10.1997 4.40039 9.26367L5.31885 5.14893C5.896 2.55908 8.15479 0.75 10.8091 0.75ZM9.06445 4.54688C8.84326 4.56738 8.63379 4.68604 8.50635 4.88086L7.9043 5.79346C7.79004 5.96631 7.83838 6.19922 8.01123 6.31348C8.07422 6.35449 8.146 6.375 8.21631 6.375C8.33936 6.375 8.45801 6.31641 8.53125 6.20654L9.13184 5.29395L9.71777 5.57959C10.7856 6.10107 11.978 6.375 13.1675 6.375H14.1255C14.332 6.375 14.5005 6.20801 14.5005 6C14.5005 5.79199 14.332 5.625 14.1255 5.625H13.1675C12.0923 5.625 11.0127 5.37598 10.0474 4.9043L9.45996 4.61865C9.33252 4.55713 9.19629 4.53516 9.06445 4.54688ZM14.7363 13.7578L19.8311 16.1938C20.9971 16.752 21.75 17.9458 21.75 19.2378V22.125C21.75 22.3315 21.5815 22.5 21.375 22.5H1.125C0.918457 22.5 0.75 22.3315 0.75 22.125V19.2378C0.75 17.9473 1.50293 16.7505 2.66895 16.1938L7.76367 13.7578C8.68506 14.9209 9.90088 15.75 11.25 15.75C12.5991 15.75 13.8149 14.9209 14.7363 13.7578ZM7.55273 15.7544C7.40771 15.7324 7.2583 15.7983 7.17773 15.9316C7.07227 16.1104 7.12939 16.3403 7.30664 16.4473L11.0566 18.6973C11.1167 18.7324 11.1826 18.75 11.25 18.75C11.3174 18.75 11.3833 18.7324 11.4434 18.6973L15.1934 16.4473C15.3706 16.3403 15.4277 16.1089 15.3223 15.9316C15.2153 15.7544 14.9854 15.6973 14.8066 15.8027L11.25 17.937L7.69336 15.8027C7.64941 15.7764 7.60107 15.7603 7.55273 15.7544ZM11.25 19.5C11.0435 19.5 10.875 19.667 10.875 19.875V21.375C10.875 21.583 11.0435 21.75 11.25 21.75C11.4565 21.75 11.625 21.583 11.625 21.375V19.875C11.625 19.667 11.4565 19.5 11.25 19.5ZM1.875 20.25C1.66846 20.25 1.5 20.417 1.5 20.625V21.375C1.5 21.583 1.66846 21.75 1.875 21.75C2.08154 21.75 2.25 21.583 2.25 21.375V20.625C2.25 20.417 2.08154 20.25 1.875 20.25ZM3.75 20.25C3.54346 20.25 3.375 20.417 3.375 20.625V21.375C3.375 21.583 3.54346 21.75 3.75 21.75C3.95654 21.75 4.125 21.583 4.125 21.375V20.625C4.125 20.417 3.95654 20.25 3.75 20.25ZM5.625 20.25C5.41846 20.25 5.25 20.417 5.25 20.625V21.375C5.25 21.583 5.41846 21.75 5.625 21.75C5.83154 21.75 6 21.583 6 21.375V20.625C6 20.417 5.83154 20.25 5.625 20.25ZM7.5 20.25C7.29346 20.25 7.125 20.417 7.125 20.625V21.375C7.125 21.583 7.29346 21.75 7.5 21.75C7.70654 21.75 7.875 21.583 7.875 21.375V20.625C7.875 20.417 7.70654 20.25 7.5 20.25ZM9.375 20.25C9.16846 20.25 9 20.417 9 20.625V21.375C9 21.583 9.16846 21.75 9.375 21.75C9.58154 21.75 9.75 21.583 9.75 21.375V20.625C9.75 20.417 9.58154 20.25 9.375 20.25ZM13.125 20.25C12.9185 20.25 12.75 20.417 12.75 20.625V21.375C12.75 21.583 12.9185 21.75 13.125 21.75C13.3315 21.75 13.5 21.583 13.5 21.375V20.625C13.5 20.417 13.3315 20.25 13.125 20.25ZM15 20.25C14.7935 20.25 14.625 20.417 14.625 20.625V21.375C14.625 21.583 14.7935 21.75 15 21.75C15.2065 21.75 15.375 21.583 15.375 21.375V20.625C15.375 20.417 15.2065 20.25 15 20.25ZM16.875 20.25C16.6685 20.25 16.5 20.417 16.5 20.625V21.375C16.5 21.583 16.6685 21.75 16.875 21.75C17.0815 21.75 17.25 21.583 17.25 21.375V20.625C17.25 20.417 17.0815 20.25 16.875 20.25ZM18.75 20.25C18.5435 20.25 18.375 20.417 18.375 20.625V21.375C18.375 21.583 18.5435 21.75 18.75 21.75C18.9565 21.75 19.125 21.583 19.125 21.375V20.625C19.125 20.417 18.9565 20.25 18.75 20.25ZM20.625 20.25C20.4185 20.25 20.25 20.417 20.25 20.625V21.375C20.25 21.583 20.4185 21.75 20.625 21.75C20.8315 21.75 21 21.583 21 21.375V20.625C21 20.417 20.8315 20.25 20.625 20.25Z" fill="#F0CD41"/>
</svg>
